<svg xmlns="http://www.w3.org/2000/svg" xmlns:xlink="http://www.w3.org/1999/xlink" xmlns:lucid="lucid" width="2509.35" height="1804.97"><g transform="translate(243.05000000000007 682)" lucid:page-tab-id="0_0"><path d="M-500-1000h3000v2500H-500z" fill="#fff"/><path d="M168-236v992h544v-992z" stroke="#000" stroke-width="4" fill="#fff"/><path d="M508-236c0 68.48-30.44 124-68 124s-68-55.52-68-124M712-211.2h68m-680 0h68m544 49.6h68m-680 0h68M712-112h68m-680 0h68m544 49.6h68m-680 0h68m544 49.6h68m-680 0h68m544 49.6h68m-680 0h68m544 49.6h68m-680 0h68M712 136h68m-680 0h68m544 49.6h68m-680 0h68m544 49.6h68m-680 0h68m544 49.6h68m-680 0h68m544 49.6h68m-680 0h68M712 384h68m-680 0h68m544 49.6h68m-680 0h68m544 49.6h68m-680 0h68m544 49.6h68m-680 0h68m544 49.6h68m-680 0h68M712 632h68m-680 0h68m544 49.6h68m-680 0h68m544 49.6h68m-680 0h68" stroke="#000" stroke-width="4" fill="#fff"/><use xlink:href="#a" transform="matrix(1,0,0,1,100,12) translate(266.6666666666667 19.444444444444443)"/><use xlink:href="#b" transform="matrix(1,0,0,1,100,12) translate(375.1234567901235 19.444444444444443)"/><use xlink:href="#c" transform="matrix(1,0,0,1,100,12) translate(400.98765432098764 19.444444444444443)"/><use xlink:href="#d" transform="matrix(1,0,0,1,202,-273.2) translate(14.246913580246915 66.44444444444444)"/><use xlink:href="#e" transform="matrix(1,0,0,1,202,-223.6) translate(0.04938271604938649 66.44444444444444)"/><use xlink:href="#f" transform="matrix(1,0,0,1,202,-173.99999999999997) translate(0.04938271604938649 66.44444444444444)"/><use xlink:href="#g" transform="matrix(1,0,0,1,202,-124.4) translate(0.04938271604938649 66.44444444444444)"/><use xlink:href="#h" transform="matrix(1,0,0,1,202,-74.80000000000001) translate(9.370370370370374 66.44444444444444)"/><use xlink:href="#i" transform="matrix(1,0,0,1,202,-25.19999999999999) translate(-6.123456790123456 66.44444444444444)"/><use xlink:href="#j" transform="matrix(1,0,0,1,202,24.399999999999977) translate(-6.123456790123456 66.44444444444444)"/><use xlink:href="#k" transform="matrix(1,0,0,1,202,74) translate(-6.123456790123456 66.44444444444444)"/><use xlink:href="#l" transform="matrix(1,0,0,1,202,123.60000000000002) translate(18 65.60000000000001)"/><use xlink:href="#m" transform="matrix(1,0,0,1,202,173.20000000000005) translate(1.5 65.60000000000001)"/><use xlink:href="#n" transform="matrix(1,0,0,1,202,222.79999999999995) translate(6.5 65.60000000000001)"/><use xlink:href="#o" transform="matrix(1,0,0,1,202,272.4) translate(2.1750000000000007 65.60000000000001)"/><use xlink:href="#p" transform="matrix(1,0,0,1,202,322) translate(14.049999999999997 65.60000000000001)"/><use xlink:href="#q" transform="matrix(1,0,0,1,202,371.60000000000014) translate(6.5 65.60000000000001)"/><use xlink:href="#r" transform="matrix(1,0,0,1,202,421.20000000000005) translate(6.5 65.60000000000001)"/><use xlink:href="#s" transform="matrix(1,0,0,1,202,470.80000000000007) translate(6.5 65.60000000000001)"/><use xlink:href="#t" transform="matrix(1,0,0,1,202,520.4000000000001) translate(1.5 65.60000000000001)"/><use xlink:href="#u" transform="matrix(1,0,0,1,202,570.0000000000001) translate(1.5 65.60000000000001)"/><use xlink:href="#v" transform="matrix(1,0,0,1,202,619.6) translate(1.5 65.60000000000001)"/><use xlink:href="#p" transform="matrix(1,0,0,1,202,669.2) translate(14.049999999999997 65.60000000000001)"/><use xlink:href="#w" transform="matrix(1,0,0,1,610,669.2) translate(1.5 65.60000000000001)"/><use xlink:href="#x" transform="matrix(1,0,0,1,610,619.6) translate(1.5 65.60000000000001)"/><use xlink:href="#y" transform="matrix(1,0,0,1,610,570.0000000000001) translate(1.5 65.60000000000001)"/><use xlink:href="#p" transform="matrix(1,0,0,1,610,520.4000000000001) translate(14.049999999999997 65.60000000000001)"/><use xlink:href="#z" transform="matrix(1,0,0,1,610,470.80000000000007) translate(1.5 65.60000000000001)"/><use xlink:href="#p" transform="matrix(1,0,0,1,610,421.20000000000005) translate(14.049999999999997 65.60000000000001)"/><use xlink:href="#A" transform="matrix(1,0,0,1,610,371.60000000000014) translate(6.5 65.60000000000001)"/><use xlink:href="#B" transform="matrix(1,0,0,1,610,322) translate(6.5 65.60000000000001)"/><use xlink:href="#C" transform="matrix(1,0,0,1,610,272.4) translate(6.5 65.60000000000001)"/><use xlink:href="#D" transform="matrix(1,0,0,1,610,222.79999999999995) translate(1.5 65.60000000000001)"/><use xlink:href="#p" transform="matrix(1,0,0,1,610,173.20000000000005) translate(14.049999999999997 65.60000000000001)"/><use xlink:href="#E" transform="matrix(1,0,0,1,610,123.60000000000002) translate(1.5 65.60000000000001)"/><use xlink:href="#F" transform="matrix(1,0,0,1,610,74) translate(1.5 65.60000000000001)"/><use xlink:href="#p" transform="matrix(1,0,0,1,610,24.399999999999977) translate(14.049999999999997 65.60000000000001)"/><use xlink:href="#G" transform="matrix(1,0,0,1,610,-25.19999999999999) translate(1.5 65.60000000000001)"/><use xlink:href="#H" transform="matrix(1,0,0,1,610,-74.80000000000001) translate(1.5 65.60000000000001)"/><use xlink:href="#I" transform="matrix(1,0,0,1,610,-124.4) translate(1.5 65.60000000000001)"/><use xlink:href="#p" transform="matrix(1,0,0,1,610,-173.99999999999997) translate(14.049999999999997 65.60000000000001)"/><use xlink:href="#J" transform="matrix(1,0,0,1,610,-223.6) translate(23 65.60000000000001)"/><use xlink:href="#J" transform="matrix(1,0,0,1,610,-273.2) translate(23 65.60000000000001)"/><path d="M1052.6 516.97v496h400v-496z" stroke="#000" stroke-width="4" fill="#fff"/><path d="M1302.6 516.97c0 34.24-22.4 62-50 62s-50-27.76-50-62M1452.6 547.97h50m-500 0h50m400 62h50m-500 0h50m400 62h50m-500 0h50m400 62h50m-500 0h50m400 62h50m-500 0h50m400 62h50m-500 0h50m400 62h50m-500 0h50m400 62h50m-500 0h50" stroke="#000" stroke-width="4" fill="#fff"/><use xlink:href="#K" transform="matrix(1,0,0,1,1002.5999999999999,640.9722463916039) translate(202.12962962962962 19.444444444444443)"/><use xlink:href="#L" transform="matrix(1,0,0,1,1077.6,516.9722463916039) translate(-18.79629629629629 35.44444444444444)"/><use xlink:href="#M" transform="matrix(1,0,0,1,1077.6,578.9722463916039) translate(2.191358024691361 35.44444444444444)"/><use xlink:href="#N" transform="matrix(1,0,0,1,1077.6,640.9722463916039) translate(2.191358024691361 35.44444444444444)"/><use xlink:href="#O" transform="matrix(1,0,0,1,1077.6,702.9722463916039) translate(2.191358024691361 35.44444444444444)"/><use xlink:href="#P" transform="matrix(1,0,0,1,1077.6,764.9722463916039) translate(-11.975308641975303 35.44444444444444)"/><use xlink:href="#Q" transform="matrix(1,0,0,1,1077.6,826.9722463916039) translate(-10.802469135802461 35.44444444444444)"/><use xlink:href="#R" transform="matrix(1,0,0,1,1077.6,888.9722463916039) translate(-3.3950617283950564 35.44444444444444)"/><use xlink:href="#S" transform="matrix(1,0,0,1,1077.6,950.9722463916039) translate(-35.95679012345679 35.44444444444444)"/><use xlink:href="#T" transform="matrix(1,0,0,1,1377.6,950.9722463916039) translate(-14.900000000000006 23.799999999999997)"/><use xlink:href="#U" transform="matrix(1,0,0,1,1377.6,950.9722463916039) translate(-2.9750000000000014 45.4)"/><use xlink:href="#V" transform="matrix(1,0,0,1,1377.6,888.9722463916039) translate(-2.2500000000000036 34.6)"/><use xlink:href="#W" transform="matrix(1,0,0,1,1377.6,826.9722463916039) translate(14 34.6)"/><use xlink:href="#X" transform="matrix(1,0,0,1,1377.6,764.9722463916039) translate(14 34.6)"/><use xlink:href="#Y" transform="matrix(1,0,0,1,1377.6,702.9722463916039) translate(14 34.6)"/><use xlink:href="#Z" transform="matrix(1,0,0,1,1377.6,640.9722463916039) translate(14 34.6)"/><use xlink:href="#T" transform="matrix(1,0,0,1,1377.6,578.9722463916039) translate(-14.900000000000006 23.799999999999997)"/><use xlink:href="#aa" transform="matrix(1,0,0,1,1377.6,578.9722463916039) translate(-8.25 45.4)"/><use xlink:href="#ab" transform="matrix(1,0,0,1,1377.6,516.9722463916039) translate(-0.9500000000000028 34.6)"/><path d="M1700 419.97h120v120h-120z" fill="none"/><path d="M1700 479.97h54m0-36v72m12-36h54m-54-36v72" stroke="#000" stroke-width="4" fill="none"/><use xlink:href="#ac" transform="matrix(1,0,0,1,1700,521.9741519616992) translate(14.382716049382708 19.444444444444443)"/><use xlink:href="#ad" transform="matrix(1,0,0,1,1700,521.9741519616992) translate(36.5432098765432 19.444444444444443)"/><use xlink:href="#ae" transform="matrix(1,0,0,1,1700,521.9741519616992) translate(79.75308641975309 19.444444444444443)"/><g stroke="#000" stroke-width="4"><path d="M1760 329.97c26.4 0 48 21.6 48 48s-21.6 48-48 48-48-21.6-48-48 21.6-48 48-48zm-48 48h-12m108 0h12" fill="#fff"/><path d="M1784 383.97v-12m-48 12v-12m-6 6h12" fill="none"/></g><use xlink:href="#af" transform="matrix(6.123233995736766e-17,-1,1,6.123233995736766e-17,1712,335.97415196169914) translate(7.160493827160494 19.444444444444443)"/><use xlink:href="#ag" transform="matrix(6.123233995736766e-17,-1,1,6.123233995736766e-17,1712,335.97415196169914) translate(38.02469135802469 19.444444444444443)"/><path d="M782 136h103.3a6 6 0 0 1 6 6v399.97a6 6 0 0 0 6 6h103.3" stroke="#00c2a8" stroke-width="4" fill="none"/><path d="M782.05 137.97H780v-3.94h2.05zM1002.6 549.95h-2.05V546h2.05z" stroke="#00c2a8" stroke-width=".05" fill="#00c2a8"/><path d="M782 731.2h107.9a1.4 1.4 0 0 1 1.4 1.4 1.4 1.4 0 0 0 1.4 1.37h107.9" stroke="#ffe342" stroke-width="4" fill="none"/><path d="M782.05 733.17H780v-3.94h2.05zM1002.6 735.95h-2.05V732h2.05z" stroke="#ffe342" stroke-width=".05" fill="#ffe342"/><path d="M782 681.6h104.5a4.8 4.8 0 0 0 4.8-4.8 4.8 4.8 0 0 1 4.8-4.83h104.5" stroke="#fc9432" stroke-width="4" fill="none"/><path d="M782.05 683.58H780v-3.96h2.05zM1002.6 673.95h-2.05V670h2.05z" stroke="#fc9432" stroke-width=".05" fill="#fc9432"/><path d="M782 632h103.3a6 6 0 0 0 6-6v-10.03a6 6 0 0 1 6-6h103.3" stroke="#cbc2a3" stroke-width="4" fill="none"/><path d="M782.05 633.98H780V630h2.05zM1002.6 611.95h-2.05V608h2.05z" stroke="#cbc2a3" stroke-width=".05" fill="#cbc2a3"/><path d="M98-211.2h-233.98" stroke="#e81313" stroke-width="4" fill="none"/><path d="M100-209.22h-2.05v-3.96H100zM-135.93-209.22h-2.36l.32-1.95-.26-2h2.3z" stroke="#e81313" stroke-width=".05" fill="#e81313"/><path d="M-150-197.17v987.14a6 6 0 0 0 6 6h939.97" stroke="#e81313" stroke-width="4" fill="none"/><path d="M-148.03-197.12h-3.94v-2.37l1.97.33 1.97-.32zM797.97 795.97l.34 1.98h-2.38V794h2.4z" stroke="#e81313" stroke-width=".05" fill="#e81313"/><path d="M824.02 795.97h176.58" stroke="#e81313" stroke-width="4" fill="none"/><path d="M824.07 797.95h-2.38L822 796l-.26-2h2.3zM1002.6 797.95h-2.05V794h2.05z" stroke="#e81313" stroke-width=".05" fill="#e81313"/><path d="M1000.6 857.97H816a6 6 0 0 1-6-6V809.5" stroke="#e81313" stroke-width="4" fill="none"/><path d="M1002.6 859.95h-2.05V856h2.05zM811.98 809.55H808v-2.36l1.98.3 1.98-.3z" stroke="#e81313" stroke-width=".05" fill="#e81313"/><path d="M98 86.4H66a6 6 0 0 0-6 6v883.57a6 6 0 0 0 6 6h934.6" stroke="#82755b" stroke-width="4" fill="none"/><path d="M100 88.38h-2.05v-3.95H100zM1002.6 983.95h-2.05V980h2.05z" stroke="#82755b" stroke-width=".05" fill="#82755b"/><path d="M98 36.8H2.1a6 6 0 0 0-6 6v871.17a6 6 0 0 0 6 6h998.5" stroke="#54c45e" stroke-width="4" fill="none"/><path d="M100 38.77h-2.05v-3.95H100zM1002.6 921.95h-2.05V918h2.05z" stroke="#54c45e" stroke-width=".05" fill="#54c45e"/><path d="M1961.3 817.98h120v-28h-120z" fill="none"/><path d="M2033.3 817.98v-14c-22.56 0-36-6.3-36-14s13.44-14 30-14c-16.56 0-30-6.3-30-14s13.44-14 30-14c-16.56 0-30-6.3-30-14s13.44-14 30-14c-16.56 0-30-6.3-30-14s13.44-14 30-14c2.16 0 3.84.14 6 .28v-14.28" stroke="#3a414a" stroke-width="4" fill="#fff"/><use xlink:href="#ah" transform="matrix(6.123233995736766e-17,-1,1,6.123233995736766e-17,1937.2999999999997,817.9760575317946) translate(18.796296296296305 17.77777777777778)"/><use xlink:href="#ai" transform="matrix(6.123233995736766e-17,-1,1,6.123233995736766e-17,1937.2999999999997,817.9760575317946) translate(108.85802469135801 17.77777777777778)"/><use xlink:href="#aj" transform="matrix(6.123233995736766e-17,-1,1,6.123233995736766e-17,1937.2999999999997,817.9760575317946) translate(12.71604938271605 44.44444444444444)"/><use xlink:href="#ak" transform="matrix(6.123233995736766e-17,-1,1,6.123233995736766e-17,1937.2999999999997,817.9760575317946) translate(114.93827160493827 44.44444444444444)"/><path d="M2081.3 797.98v100h28v-100z" fill="none"/><path d="M2081.3 857.98h14c0-18.8 6.3-30 14-30s14 11.2 14 25c0-13.8 6.3-25 14-25s14 11.2 14 25c0-13.8 6.3-25 14-25s14 11.2 14 25c0-13.8 6.3-25 14-25s14 11.2 14 25c0 1.8-.14 3.2-.28 5h14.28" stroke="#3a414a" stroke-width="4" fill="#fff"/><use xlink:href="#ah" transform="matrix(1,0,0,1,2081.2999999999997,777.9760575317948) translate(18.796296296296305 17.77777777777778)"/><use xlink:href="#al" transform="matrix(1,0,0,1,2081.2999999999997,777.9760575317948) translate(108.85802469135801 17.77777777777778)"/><use xlink:href="#aj" transform="matrix(1,0,0,1,2081.2999999999997,777.9760575317948) translate(12.71604938271605 44.44444444444444)"/><use xlink:href="#ak" transform="matrix(1,0,0,1,2081.2999999999997,777.9760575317948) translate(114.93827160493827 44.44444444444444)"/><path d="M1504.6 609.97H1844a6 6 0 0 0 6-6V494" stroke="#3a414a" stroke-width="4" fill="none"/><path d="M1504.65 611.95h-2.05V608h2.05zM1850 492l1.97-.32v2.37h-3.94v-2.37z" stroke="#3a414a" stroke-width=".05" fill="#3a414a"/><path d="M1698 377.97h-22a6 6 0 0 0-6 6v81.98" stroke="#e81313" stroke-width="4" fill="none"/><path d="M1700 379.95h-2.05V376h2.05zM1671.97 468.2l-1.97-.25-1.97.26v-2.3h3.94z" stroke="#e81313" stroke-width=".05" fill="#e81313"/><path d="M1504.6 547.97H1664a6 6 0 0 0 6-6V494" stroke="#e81313" stroke-width="4" fill="none"/><path d="M1504.65 549.95h-2.05V546h2.05zM1671.97 494.05h-3.94v-2.37l1.97.32 1.97-.32z" stroke="#e81313" stroke-width=".05" fill="#e81313"/><path d="M1822 377.97h15" stroke="#3a414a" stroke-width="4" fill="none"/><path d="M1822.05 379.95H1820V376h2.05z" stroke="#3a414a" stroke-width=".05" fill="#3a414a"/><path d="M1836.94 377.97h2.05M1822 377.97h22a6 6 0 0 1 6 6v82" stroke="#3a414a" stroke-width="4" fill="none"/><path d="M1822.05 379.95H1820V376h2.05zM1851.97 468.22l-1.97-.26-1.97.26v-2.3h3.94z" stroke="#3a414a" stroke-width=".05" fill="#3a414a"/><path d="M1504.6 981.97h32a6 6 0 0 1 6 6v124a6 6 0 0 1-6 6H-95.3a6 6 0 0 1-6-6V4.03" stroke="#3a414a" stroke-width="4" fill="none"/><path d="M1504.65 983.95h-2.05V980h2.05zM-99.33 4.08h-3.95V1.7l1.98.33 1.97-.32z" stroke="#3a414a" stroke-width=".05" fill="#3a414a"/><path d="M2033.3 675.98a4 4 0 0 0-4-4h-524.7" stroke="#e81313" stroke-width="4" fill="none"/><path d="M2035.28 677.98h-3.95v-2.06h3.95zM1504.65 673.95h-2.05V670h2.05z" stroke="#e81313" stroke-width=".05" fill="#e81313"/><path d="M2033.3 819.98v2a6 6 0 0 1-6 6h-120a6 6 0 0 1-6-6v-82a6 6 0 0 0-6-6h-390.7" stroke="#3a414a" stroke-width="4" fill="none"/><path d="M2035.28 820.03h-3.95v-2.05h3.95zM1504.65 735.95h-2.05V732h2.05z" stroke="#3a414a" stroke-width=".05" fill="#3a414a"/><path d="M2079.3 857.98h-272a6 6 0 0 1-6-6v-50a6 6 0 0 0-6-6h-290.7" stroke="#3a414a" stroke-width="4" fill="none"/><path d="M2081.3 859.95h-2.05V856h2.05zM1504.65 797.95h-2.05V794h2.05z" stroke="#3a414a" stroke-width=".05" fill="#3a414a"/><path d="M2223.3 857.98h32a6 6 0 0 1 6 6v28a6 6 0 0 1-6 6h-488a6 6 0 0 1-6-6v-28a6 6 0 0 0-6-6h-250.7" stroke="#e81313" stroke-width="4" fill="none"/><path d="M2223.35 859.95h-2.05V856h2.05zM1504.65 859.95h-2.05V856h2.05z" stroke="#e81313" stroke-width=".05" fill="#e81313"/><path d="M820 795.97c0 5.25-4.48 9.5-10 9.5s-10-4.25-10-9.5c0-5.24 4.48-9.5 10-9.5s10 4.26 10 9.5zM1680 479.97c0 5.52-4.48 10-10 10s-10-4.48-10-10 4.48-10 10-10 10 4.48 10 10z" stroke="#e81313" stroke-width="4" fill="#e81313"/><path d="M1684.02 479.97H1698" stroke="#3a414a" stroke-width="4" fill="none"/><path d="M1684.07 481.95h-2.36l.32-1.95-.26-2h2.3zM1700 481.95h-2.05V478h2.05z" stroke="#3a414a" stroke-width=".05" fill="#3a414a"/><path d="M1860 479.97c0 5.53-4.48 10-10 10s-10-4.47-10-10c0-5.52 4.48-10 10-10s10 4.48 10 10z" stroke="#3a414a" stroke-width="4"/><path d="M1822 479.97h13.98" stroke="#3a414a" stroke-width="4" fill="none"/><path d="M1822.05 481.95H1820V478h2.05zM1837.98 480l.3 1.95h-2.35V478h2.3z" stroke="#3a414a" stroke-width=".05" fill="#3a414a"/><g stroke="#3a414a" stroke-width="4" fill="#fff"><path d="M-174.35-426h389.6v-208h-389.6z"/><path d="M-174.35-556c26.9 0 48.7 11.64 48.7 26s-21.8 26-48.7 26M-150-634v-26m0 260v-26m48.7-208v-26m0 260v-26m48.7-208v-26m0 260v-26m48.7-208v-26m0 260v-26m48.7-208v-26m0 260v-26m48.7-208v-26m0 260v-26m48.7-208v-26m0 260v-26m48.7-208v-26m0 260v-26"/></g><use xlink:href="#am" transform="matrix(6.123233995736766e-17,-1,1,6.123233995736766e-17,-76.95000000000005,-400) translate(77.00617283950618 19.444444444444443)"/><use xlink:href="#an" transform="matrix(6.123233995736766e-17,-1,1,6.123233995736766e-17,-174.35000000000002,-439) translate(-10.39506172839506 28.944444444444443)"/><use xlink:href="#ao" transform="matrix(6.123233995736766e-17,-1,1,6.123233995736766e-17,-125.65000000000009,-439) translate(-11.629629629629626 28.944444444444443)"/><use xlink:href="#ap" transform="matrix(6.123233995736766e-17,-1,1,6.123233995736766e-17,-76.95000000000005,-439) translate(-8.574074074074073 28.944444444444443)"/><use xlink:href="#aq" transform="matrix(6.123233995736766e-17,-1,1,6.123233995736766e-17,-28.250000000000114,-439) translate(-9.808641975308639 28.944444444444443)"/><use xlink:href="#ar" transform="matrix(6.123233995736766e-17,-1,1,6.123233995736766e-17,20.449999999999932,-439) translate(-9.808641975308639 28.944444444444443)"/><use xlink:href="#as" transform="matrix(6.123233995736766e-17,-1,1,6.123233995736766e-17,69.14999999999998,-439) translate(-8.574074074074073 28.944444444444443)"/><use xlink:href="#at" transform="matrix(6.123233995736766e-17,-1,1,6.123233995736766e-17,117.84999999999997,-439) translate(-8.574074074074073 28.944444444444443)"/><use xlink:href="#au" transform="matrix(6.123233995736766e-17,-1,1,6.123233995736766e-17,166.54999999999995,-439) translate(-4.839506172839506 28.944444444444443)"/><path d="M-101.3-398v373.98" stroke="#3a414a" stroke-width="4" fill="none"/><path d="M-99.33-397.95h-3.95V-400h3.95zM-99.33-21.76l-1.97-.26-1.98.26v-2.3h3.95z" stroke="#3a414a" stroke-width=".05" fill="#3a414a"/><path d="M-140-211.2c0 5.52-4.48 10-10 10s-10-4.48-10-10 4.48-10 10-10 10 4.48 10 10z" stroke="#e81313" stroke-width="4" fill="#e81313"/><path d="M-150-398v172.78" stroke="#e81313" stroke-width="4" fill="none"/><path d="M-148.03-397.95h-3.94V-400h3.94zM-148.03-222.96l-1.97-.26-1.97.26v-2.3h3.94z" stroke="#e81313" stroke-width=".05" fill="#e81313"/><path d="M-91.3-10c0 5.52-4.48 10-10 10s-10-4.48-10-10 4.48-10 10-10 10 4.48 10 10z" stroke="#3a414a" stroke-width="4"/><path d="M98-12.8H5.3a.13.13 0 0 1-.14-.13.13.13 0 0 0-.13-.13h-92.7" stroke="#3a414a" stroke-width="4" fill="none"/><path d="M100-10.82h-2.05v-3.96H100zM-87.63-11.08h-1.8l-.26-2.04-.78-1.9h2.85z" stroke="#3a414a" stroke-width=".05" fill="#3a414a"/><path d="M-52.6-398v280a6 6 0 0 0 6 6H98" stroke="#fcce14" stroke-width="4" fill="none"/><path d="M-50.63-397.95h-3.95V-400h3.95zM100-110.03h-2.05v-3.94H100z" stroke="#fcce14" stroke-width=".05" fill="#fcce14"/><path d="M-3.9-398v230.4a6 6 0 0 0 6 6H98" stroke="#635dff" stroke-width="4" fill="none"/><path d="M-1.93-397.95h-3.95V-400h3.96zM100-159.63h-2.05v-3.94H100z" stroke="#635dff" stroke-width=".05" fill="#635dff"/><defs><path fill="#3a414a" d="M233-177c-1 41-23 64-60 70L243 0h-38l-65-103H63V0H30v-248c88 3 205-21 203 71zM63-129c60-2 137 13 137-47 0-61-80-42-137-45v92" id="av"/><path fill="#3a414a" d="M141-36C126-15 110 5 73 4 37 3 15-17 15-53c-1-64 63-63 125-63 3-35-9-54-41-54-24 1-41 7-42 31l-33-3c5-37 33-52 76-52 45 0 72 20 72 64v82c-1 20 7 32 28 27v20c-31 9-61-2-59-35zM48-53c0 20 12 33 32 33 41-3 63-29 60-74-43 2-92-5-92 41" id="aw"/><path fill="#3a414a" d="M135-143c-3-34-86-38-87 0 15 53 115 12 119 90S17 21 10-45l28-5c4 36 97 45 98 0-10-56-113-15-118-90-4-57 82-63 122-42 12 7 21 19 24 35" id="ax"/><path fill="#3a414a" d="M115-194c55 1 70 41 70 98S169 2 115 4C84 4 66-9 55-30l1 105H24l-1-265h31l2 30c10-21 28-34 59-34zm-8 174c40 0 45-34 45-75s-6-73-45-74c-42 0-51 32-51 76 0 43 10 73 51 73" id="ay"/><path fill="#3a414a" d="M115-194c53 0 69 39 70 98 0 66-23 100-70 100C84 3 66-7 56-30L54 0H23l1-261h32v101c10-23 28-34 59-34zm-8 174c40 0 45-34 45-75 0-40-5-75-45-74-42 0-51 32-51 76 0 43 10 73 51 73" id="az"/><path fill="#3a414a" d="M100-194c63 0 86 42 84 106H49c0 40 14 67 53 68 26 1 43-12 49-29l28 8c-11 28-37 45-77 45C44 4 14-33 15-96c1-61 26-98 85-98zm52 81c6-60-76-77-97-28-3 7-6 17-6 28h103" id="aA"/><path fill="#3a414a" d="M114-163C36-179 61-72 57 0H25l-1-190h30c1 12-1 29 2 39 6-27 23-49 58-41v29" id="aB"/><path fill="#3a414a" d="M179-190L93 31C79 59 56 82 12 73V49c39 6 53-20 64-50L1-190h34L92-34l54-156h33" id="aC"/><g id="a"><use transform="matrix(0.06172839506172839,0,0,0.06172839506172839,0,0)" xlink:href="#av"/><use transform="matrix(0.06172839506172839,0,0,0.06172839506172839,15.987654320987653,0)" xlink:href="#aw"/><use transform="matrix(0.06172839506172839,0,0,0.06172839506172839,28.333333333333332,0)" xlink:href="#ax"/><use transform="matrix(0.06172839506172839,0,0,0.06172839506172839,39.44444444444444,0)" xlink:href="#ay"/><use transform="matrix(0.06172839506172839,0,0,0.06172839506172839,51.79012345679012,0)" xlink:href="#az"/><use transform="matrix(0.06172839506172839,0,0,0.06172839506172839,64.1358024691358,0)" xlink:href="#aA"/><use transform="matrix(0.06172839506172839,0,0,0.06172839506172839,76.48148148148148,0)" xlink:href="#aB"/><use transform="matrix(0.06172839506172839,0,0,0.06172839506172839,83.82716049382717,0)" xlink:href="#aB"/><use transform="matrix(0.06172839506172839,0,0,0.06172839506172839,91.17283950617285,0)" xlink:href="#aC"/></g><path fill="#3a414a" d="M30-248c87 1 191-15 191 75 0 78-77 80-158 76V0H30v-248zm33 125c57 0 124 11 124-50 0-59-68-47-124-48v98" id="aD"/><path fill="#3a414a" d="M24-231v-30h32v30H24zM24 0v-190h32V0H24" id="aE"/><g id="b"><use transform="matrix(0.06172839506172839,0,0,0.06172839506172839,0,0)" xlink:href="#aD"/><use transform="matrix(0.06172839506172839,0,0,0.06172839506172839,14.814814814814813,0)" xlink:href="#aE"/></g><path fill="#3a414a" d="M126-127c33 6 58 20 58 59 0 88-139 92-164 29-3-8-5-16-6-25l32-3c6 27 21 44 54 44 32 0 52-15 52-46 0-38-36-46-79-43v-28c39 1 72-4 72-42 0-27-17-43-46-43-28 0-47 15-49 41l-32-3c6-42 35-63 81-64 48-1 79 21 79 65 0 36-21 52-52 59" id="aF"/><use transform="matrix(0.06172839506172839,0,0,0.06172839506172839,0,0)" xlink:href="#aF" id="c"/><path fill="#3a414a" d="M137 0h-34L2-248h35l83 218 83-218h36" id="aG"/><g id="d"><use transform="matrix(0.06172839506172839,0,0,0.06172839506172839,0,0)" xlink:href="#aF"/><use transform="matrix(0.06172839506172839,0,0,0.06172839506172839,12.345679012345679,0)" xlink:href="#aG"/><use transform="matrix(0.06172839506172839,0,0,0.06172839506172839,27.160493827160494,0)" xlink:href="#aF"/></g><path fill="#3a414a" d="M143 4C61 4 22-44 18-125c-5-107 100-154 193-111 17 8 29 25 37 43l-32 9c-13-25-37-40-76-40-61 0-88 39-88 99 0 61 29 100 91 101 35 0 62-11 79-27v-45h-74v-28h105v86C228-13 192 4 143 4" id="aH"/><path fill="#3a414a" d="M33 0v-248h34V0H33" id="aI"/><path fill="#3a414a" d="M140-251c81 0 123 46 123 126C263-46 219 4 140 4 59 4 17-45 17-125s42-126 123-126zm0 227c63 0 89-41 89-101s-29-99-89-99c-61 0-89 39-89 99S79-25 140-24" id="aJ"/><path fill="#3a414a" d="M101-251c82-7 93 87 43 132L82-64C71-53 59-42 53-27h129V0H18c2-99 128-94 128-182 0-28-16-43-45-43s-46 15-49 41l-32-3c6-41 34-60 81-64" id="aK"/><g id="e"><use transform="matrix(0.06172839506172839,0,0,0.06172839506172839,0,0)" xlink:href="#aH"/><use transform="matrix(0.06172839506172839,0,0,0.06172839506172839,17.28395061728395,0)" xlink:href="#aD"/><use transform="matrix(0.06172839506172839,0,0,0.06172839506172839,32.09876543209876,0)" xlink:href="#aI"/><use transform="matrix(0.06172839506172839,0,0,0.06172839506172839,38.2716049382716,0)" xlink:href="#aJ"/><use transform="matrix(0.06172839506172839,0,0,0.06172839506172839,55.55555555555555,0)" xlink:href="#aK"/></g><g id="f"><use transform="matrix(0.06172839506172839,0,0,0.06172839506172839,0,0)" xlink:href="#aH"/><use transform="matrix(0.06172839506172839,0,0,0.06172839506172839,17.28395061728395,0)" xlink:href="#aD"/><use transform="matrix(0.06172839506172839,0,0,0.06172839506172839,32.09876543209876,0)" xlink:href="#aI"/><use transform="matrix(0.06172839506172839,0,0,0.06172839506172839,38.2716049382716,0)" xlink:href="#aJ"/><use transform="matrix(0.06172839506172839,0,0,0.06172839506172839,55.55555555555555,0)" xlink:href="#aF"/></g><path fill="#3a414a" d="M155-56V0h-30v-56H8v-25l114-167h33v167h35v25h-35zm-30-156c-27 46-58 90-88 131h88v-131" id="aL"/><g id="g"><use transform="matrix(0.06172839506172839,0,0,0.06172839506172839,0,0)" xlink:href="#aH"/><use transform="matrix(0.06172839506172839,0,0,0.06172839506172839,17.28395061728395,0)" xlink:href="#aD"/><use transform="matrix(0.06172839506172839,0,0,0.06172839506172839,32.09876543209876,0)" xlink:href="#aI"/><use transform="matrix(0.06172839506172839,0,0,0.06172839506172839,38.2716049382716,0)" xlink:href="#aJ"/><use transform="matrix(0.06172839506172839,0,0,0.06172839506172839,55.55555555555555,0)" xlink:href="#aL"/></g><path fill="#3a414a" d="M190 0L58-211 59 0H30v-248h39L202-35l-2-213h31V0h-41" id="aM"/><path fill="#3a414a" d="M30-248c118-7 216 8 213 122C240-48 200 0 122 0H30v-248zM63-27c89 8 146-16 146-99s-60-101-146-95v194" id="aN"/><g id="h"><use transform="matrix(0.06172839506172839,0,0,0.06172839506172839,0,0)" xlink:href="#aH"/><use transform="matrix(0.06172839506172839,0,0,0.06172839506172839,17.28395061728395,0)" xlink:href="#aM"/><use transform="matrix(0.06172839506172839,0,0,0.06172839506172839,33.2716049382716,0)" xlink:href="#aN"/></g><path fill="#3a414a" d="M27 0v-27h64v-190l-56 39v-29l58-41h29v221h61V0H27" id="aO"/><path fill="#3a414a" d="M64 0c3-98 48-159 88-221H18v-27h164v26C143-157 98-101 97 0H64" id="aP"/><g id="i"><use transform="matrix(0.06172839506172839,0,0,0.06172839506172839,0,0)" xlink:href="#aH"/><use transform="matrix(0.06172839506172839,0,0,0.06172839506172839,17.28395061728395,0)" xlink:href="#aD"/><use transform="matrix(0.06172839506172839,0,0,0.06172839506172839,32.09876543209876,0)" xlink:href="#aI"/><use transform="matrix(0.06172839506172839,0,0,0.06172839506172839,38.2716049382716,0)" xlink:href="#aJ"/><use transform="matrix(0.06172839506172839,0,0,0.06172839506172839,55.55555555555555,0)" xlink:href="#aO"/><use transform="matrix(0.06172839506172839,0,0,0.06172839506172839,67.90123456790123,0)" xlink:href="#aP"/></g><g id="j"><use transform="matrix(0.06172839506172839,0,0,0.06172839506172839,0,0)" xlink:href="#aH"/><use transform="matrix(0.06172839506172839,0,0,0.06172839506172839,17.28395061728395,0)" xlink:href="#aD"/><use transform="matrix(0.06172839506172839,0,0,0.06172839506172839,32.09876543209876,0)" xlink:href="#aI"/><use transform="matrix(0.06172839506172839,0,0,0.06172839506172839,38.2716049382716,0)" xlink:href="#aJ"/><use transform="matrix(0.06172839506172839,0,0,0.06172839506172839,55.55555555555555,0)" xlink:href="#aK"/><use transform="matrix(0.06172839506172839,0,0,0.06172839506172839,67.90123456790123,0)" xlink:href="#aP"/></g><g id="k"><use transform="matrix(0.06172839506172839,0,0,0.06172839506172839,0,0)" xlink:href="#aH"/><use transform="matrix(0.06172839506172839,0,0,0.06172839506172839,17.28395061728395,0)" xlink:href="#aD"/><use transform="matrix(0.06172839506172839,0,0,0.06172839506172839,32.09876543209876,0)" xlink:href="#aI"/><use transform="matrix(0.06172839506172839,0,0,0.06172839506172839,38.2716049382716,0)" xlink:href="#aJ"/><use transform="matrix(0.06172839506172839,0,0,0.06172839506172839,55.55555555555555,0)" xlink:href="#aK"/><use transform="matrix(0.06172839506172839,0,0,0.06172839506172839,67.90123456790123,0)" xlink:href="#aK"/></g><path d="M126-127c33 6 58 20 58 59 0 88-139 92-164 29-3-8-5-16-6-25l32-3c6 27 21 44 54 44 32 0 52-15 52-46 0-38-36-46-79-43v-28c39 1 72-4 72-42 0-27-17-43-46-43-28 0-47 15-49 41l-32-3c6-42 35-63 81-64 48-1 79 21 79 65 0 36-21 52-52 59" id="aQ"/><path d="M137 0h-34L2-248h35l83 218 83-218h36" id="aR"/><g id="l"><use transform="matrix(0.05,0,0,0.05,0,0)" xlink:href="#aQ"/><use transform="matrix(0.05,0,0,0.05,10,0)" xlink:href="#aR"/><use transform="matrix(0.05,0,0,0.05,22,0)" xlink:href="#aQ"/></g><path d="M143 4C61 4 22-44 18-125c-5-107 100-154 193-111 17 8 29 25 37 43l-32 9c-13-25-37-40-76-40-61 0-88 39-88 99 0 61 29 100 91 101 35 0 62-11 79-27v-45h-74v-28h105v86C228-13 192 4 143 4" id="aS"/><path d="M30-248c87 1 191-15 191 75 0 78-77 80-158 76V0H30v-248zm33 125c57 0 124 11 124-50 0-59-68-47-124-48v98" id="aT"/><path d="M33 0v-248h34V0H33" id="aU"/><path d="M140-251c81 0 123 46 123 126C263-46 219 4 140 4 59 4 17-45 17-125s42-126 123-126zm0 227c63 0 89-41 89-101s-29-99-89-99c-61 0-89 39-89 99S79-25 140-24" id="aV"/><path d="M27 0v-27h64v-190l-56 39v-29l58-41h29v221h61V0H27" id="aW"/><path d="M101-251c68 0 85 55 85 127S166 4 100 4C33 4 14-52 14-124c0-73 17-127 87-127zm-1 229c47 0 54-49 54-102s-4-102-53-102c-51 0-55 48-55 102 0 53 5 102 54 102" id="aX"/><g id="m"><use transform="matrix(0.05,0,0,0.05,0,0)" xlink:href="#aS"/><use transform="matrix(0.05,0,0,0.05,14,0)" xlink:href="#aT"/><use transform="matrix(0.05,0,0,0.05,26,0)" xlink:href="#aU"/><use transform="matrix(0.05,0,0,0.05,31,0)" xlink:href="#aV"/><use transform="matrix(0.05,0,0,0.05,45,0)" xlink:href="#aW"/><use transform="matrix(0.05,0,0,0.05,55,0)" xlink:href="#aX"/></g><path d="M99-251c64 0 84 50 84 122C183-37 130 33 47-8c-14-7-20-23-25-40l30-5c6 39 69 39 84 7 9-19 16-44 16-74-10 22-31 35-62 35-49 0-73-33-73-83 0-54 28-83 82-83zm-1 141c31-1 51-18 51-49 0-36-14-67-51-67-34 0-49 23-49 58 0 34 15 58 49 58" id="aY"/><g id="n"><use transform="matrix(0.05,0,0,0.05,0,0)" xlink:href="#aS"/><use transform="matrix(0.05,0,0,0.05,14,0)" xlink:href="#aT"/><use transform="matrix(0.05,0,0,0.05,26,0)" xlink:href="#aU"/><use transform="matrix(0.05,0,0,0.05,31,0)" xlink:href="#aV"/><use transform="matrix(0.05,0,0,0.05,45,0)" xlink:href="#aY"/></g><g id="o"><use transform="matrix(0.05,0,0,0.05,0,0)" xlink:href="#aS"/><use transform="matrix(0.05,0,0,0.05,14,0)" xlink:href="#aT"/><use transform="matrix(0.05,0,0,0.05,26,0)" xlink:href="#aU"/><use transform="matrix(0.05,0,0,0.05,31,0)" xlink:href="#aV"/><use transform="matrix(0.05,0,0,0.05,45,0)" xlink:href="#aW"/><use transform="matrix(0.05,0,0,0.05,53.650000000000006,0)" xlink:href="#aW"/></g><path d="M190 0L58-211 59 0H30v-248h39L202-35l-2-213h31V0h-41" id="aZ"/><path d="M30-248c118-7 216 8 213 122C240-48 200 0 122 0H30v-248zM63-27c89 8 146-16 146-99s-60-101-146-95v194" id="ba"/><g id="p"><use transform="matrix(0.05,0,0,0.05,0,0)" xlink:href="#aS"/><use transform="matrix(0.05,0,0,0.05,14,0)" xlink:href="#aZ"/><use transform="matrix(0.05,0,0,0.05,26.950000000000003,0)" xlink:href="#ba"/></g><g id="q"><use transform="matrix(0.05,0,0,0.05,0,0)" xlink:href="#aS"/><use transform="matrix(0.05,0,0,0.05,14,0)" xlink:href="#aT"/><use transform="matrix(0.05,0,0,0.05,26,0)" xlink:href="#aU"/><use transform="matrix(0.05,0,0,0.05,31,0)" xlink:href="#aV"/><use transform="matrix(0.05,0,0,0.05,45,0)" xlink:href="#aX"/></g><path d="M54-142c48-35 137-8 131 61C196 18 31 33 14-55l32-4c7 23 22 37 52 37 35-1 51-22 54-58 4-55-73-65-99-34H22l8-134h141v27H59" id="bb"/><g id="r"><use transform="matrix(0.05,0,0,0.05,0,0)" xlink:href="#aS"/><use transform="matrix(0.05,0,0,0.05,14,0)" xlink:href="#aT"/><use transform="matrix(0.05,0,0,0.05,26,0)" xlink:href="#aU"/><use transform="matrix(0.05,0,0,0.05,31,0)" xlink:href="#aV"/><use transform="matrix(0.05,0,0,0.05,45,0)" xlink:href="#bb"/></g><path d="M110-160c48 1 74 30 74 79 0 53-28 85-80 85-65 0-83-55-86-122-5-90 50-162 133-122 14 7 22 21 27 39l-31 6c-5-40-67-38-82-6-9 19-15 44-15 74 11-20 30-34 60-33zm-7 138c34 0 49-23 49-58s-16-56-50-56c-29 0-50 16-49 49 1 36 15 65 50 65" id="bc"/><g id="s"><use transform="matrix(0.05,0,0,0.05,0,0)" xlink:href="#aS"/><use transform="matrix(0.05,0,0,0.05,14,0)" xlink:href="#aT"/><use transform="matrix(0.05,0,0,0.05,26,0)" xlink:href="#aU"/><use transform="matrix(0.05,0,0,0.05,31,0)" xlink:href="#aV"/><use transform="matrix(0.05,0,0,0.05,45,0)" xlink:href="#bc"/></g><g id="t"><use transform="matrix(0.05,0,0,0.05,0,0)" xlink:href="#aS"/><use transform="matrix(0.05,0,0,0.05,14,0)" xlink:href="#aT"/><use transform="matrix(0.05,0,0,0.05,26,0)" xlink:href="#aU"/><use transform="matrix(0.05,0,0,0.05,31,0)" xlink:href="#aV"/><use transform="matrix(0.05,0,0,0.05,45,0)" xlink:href="#aW"/><use transform="matrix(0.05,0,0,0.05,55,0)" xlink:href="#aQ"/></g><g id="u"><use transform="matrix(0.05,0,0,0.05,0,0)" xlink:href="#aS"/><use transform="matrix(0.05,0,0,0.05,14,0)" xlink:href="#aT"/><use transform="matrix(0.05,0,0,0.05,26,0)" xlink:href="#aU"/><use transform="matrix(0.05,0,0,0.05,31,0)" xlink:href="#aV"/><use transform="matrix(0.05,0,0,0.05,45,0)" xlink:href="#aW"/><use transform="matrix(0.05,0,0,0.05,55,0)" xlink:href="#aY"/></g><path d="M101-251c82-7 93 87 43 132L82-64C71-53 59-42 53-27h129V0H18c2-99 128-94 128-182 0-28-16-43-45-43s-46 15-49 41l-32-3c6-41 34-60 81-64" id="bd"/><g id="v"><use transform="matrix(0.05,0,0,0.05,0,0)" xlink:href="#aS"/><use transform="matrix(0.05,0,0,0.05,14,0)" xlink:href="#aT"/><use transform="matrix(0.05,0,0,0.05,26,0)" xlink:href="#aU"/><use transform="matrix(0.05,0,0,0.05,31,0)" xlink:href="#aV"/><use transform="matrix(0.05,0,0,0.05,45,0)" xlink:href="#bd"/><use transform="matrix(0.05,0,0,0.05,55,0)" xlink:href="#bc"/></g><g id="w"><use transform="matrix(0.05,0,0,0.05,0,0)" xlink:href="#aS"/><use transform="matrix(0.05,0,0,0.05,14,0)" xlink:href="#aT"/><use transform="matrix(0.05,0,0,0.05,26,0)" xlink:href="#aU"/><use transform="matrix(0.05,0,0,0.05,31,0)" xlink:href="#aV"/><use transform="matrix(0.05,0,0,0.05,45,0)" xlink:href="#bd"/><use transform="matrix(0.05,0,0,0.05,55,0)" xlink:href="#aW"/></g><g id="x"><use transform="matrix(0.05,0,0,0.05,0,0)" xlink:href="#aS"/><use transform="matrix(0.05,0,0,0.05,14,0)" xlink:href="#aT"/><use transform="matrix(0.05,0,0,0.05,26,0)" xlink:href="#aU"/><use transform="matrix(0.05,0,0,0.05,31,0)" xlink:href="#aV"/><use transform="matrix(0.05,0,0,0.05,45,0)" xlink:href="#bd"/><use transform="matrix(0.05,0,0,0.05,55,0)" xlink:href="#aX"/></g><g id="y"><use transform="matrix(0.05,0,0,0.05,0,0)" xlink:href="#aS"/><use transform="matrix(0.05,0,0,0.05,14,0)" xlink:href="#aT"/><use transform="matrix(0.05,0,0,0.05,26,0)" xlink:href="#aU"/><use transform="matrix(0.05,0,0,0.05,31,0)" xlink:href="#aV"/><use transform="matrix(0.05,0,0,0.05,45,0)" xlink:href="#aW"/><use transform="matrix(0.05,0,0,0.05,55,0)" xlink:href="#bc"/></g><g id="z"><use transform="matrix(0.05,0,0,0.05,0,0)" xlink:href="#aS"/><use transform="matrix(0.05,0,0,0.05,14,0)" xlink:href="#aT"/><use transform="matrix(0.05,0,0,0.05,26,0)" xlink:href="#aU"/><use transform="matrix(0.05,0,0,0.05,31,0)" xlink:href="#aV"/><use transform="matrix(0.05,0,0,0.05,45,0)" xlink:href="#aW"/><use transform="matrix(0.05,0,0,0.05,55,0)" xlink:href="#bd"/></g><g id="A"><use transform="matrix(0.05,0,0,0.05,0,0)" xlink:href="#aS"/><use transform="matrix(0.05,0,0,0.05,14,0)" xlink:href="#aT"/><use transform="matrix(0.05,0,0,0.05,26,0)" xlink:href="#aU"/><use transform="matrix(0.05,0,0,0.05,31,0)" xlink:href="#aV"/><use transform="matrix(0.05,0,0,0.05,45,0)" xlink:href="#aW"/></g><path d="M64 0c3-98 48-159 88-221H18v-27h164v26C143-157 98-101 97 0H64" id="be"/><g id="B"><use transform="matrix(0.05,0,0,0.05,0,0)" xlink:href="#aS"/><use transform="matrix(0.05,0,0,0.05,14,0)" xlink:href="#aT"/><use transform="matrix(0.05,0,0,0.05,26,0)" xlink:href="#aU"/><use transform="matrix(0.05,0,0,0.05,31,0)" xlink:href="#aV"/><use transform="matrix(0.05,0,0,0.05,45,0)" xlink:href="#be"/></g><path d="M134-131c28 9 52 24 51 62-1 50-34 73-85 73S17-19 16-69c0-36 21-54 49-61-75-25-45-126 34-121 46 3 78 18 79 63 0 33-17 51-44 57zm-34-11c31 1 46-15 46-44 0-28-17-43-47-42-29 0-46 13-45 42 1 28 16 44 46 44zm1 122c35 0 51-18 51-52 0-30-18-46-53-46-33 0-51 17-51 47 0 34 19 51 53 51" id="bf"/><g id="C"><use transform="matrix(0.05,0,0,0.05,0,0)" xlink:href="#aS"/><use transform="matrix(0.05,0,0,0.05,14,0)" xlink:href="#aT"/><use transform="matrix(0.05,0,0,0.05,26,0)" xlink:href="#aU"/><use transform="matrix(0.05,0,0,0.05,31,0)" xlink:href="#aV"/><use transform="matrix(0.05,0,0,0.05,45,0)" xlink:href="#bf"/></g><g id="D"><use transform="matrix(0.05,0,0,0.05,0,0)" xlink:href="#aS"/><use transform="matrix(0.05,0,0,0.05,14,0)" xlink:href="#aT"/><use transform="matrix(0.05,0,0,0.05,26,0)" xlink:href="#aU"/><use transform="matrix(0.05,0,0,0.05,31,0)" xlink:href="#aV"/><use transform="matrix(0.05,0,0,0.05,45,0)" xlink:href="#bd"/><use transform="matrix(0.05,0,0,0.05,55,0)" xlink:href="#bb"/></g><path d="M155-56V0h-30v-56H8v-25l114-167h33v167h35v25h-35zm-30-156c-27 46-58 90-88 131h88v-131" id="bg"/><g id="E"><use transform="matrix(0.05,0,0,0.05,0,0)" xlink:href="#aS"/><use transform="matrix(0.05,0,0,0.05,14,0)" xlink:href="#aT"/><use transform="matrix(0.05,0,0,0.05,26,0)" xlink:href="#aU"/><use transform="matrix(0.05,0,0,0.05,31,0)" xlink:href="#aV"/><use transform="matrix(0.05,0,0,0.05,45,0)" xlink:href="#bd"/><use transform="matrix(0.05,0,0,0.05,55,0)" xlink:href="#bg"/></g><g id="F"><use transform="matrix(0.05,0,0,0.05,0,0)" xlink:href="#aS"/><use transform="matrix(0.05,0,0,0.05,14,0)" xlink:href="#aT"/><use transform="matrix(0.05,0,0,0.05,26,0)" xlink:href="#aU"/><use transform="matrix(0.05,0,0,0.05,31,0)" xlink:href="#aV"/><use transform="matrix(0.05,0,0,0.05,45,0)" xlink:href="#bd"/><use transform="matrix(0.05,0,0,0.05,55,0)" xlink:href="#aQ"/></g><g id="G"><use transform="matrix(0.05,0,0,0.05,0,0)" xlink:href="#aS"/><use transform="matrix(0.05,0,0,0.05,14,0)" xlink:href="#aT"/><use transform="matrix(0.05,0,0,0.05,26,0)" xlink:href="#aU"/><use transform="matrix(0.05,0,0,0.05,31,0)" xlink:href="#aV"/><use transform="matrix(0.05,0,0,0.05,45,0)" xlink:href="#aW"/><use transform="matrix(0.05,0,0,0.05,55,0)" xlink:href="#bf"/></g><g id="H"><use transform="matrix(0.05,0,0,0.05,0,0)" xlink:href="#aS"/><use transform="matrix(0.05,0,0,0.05,14,0)" xlink:href="#aT"/><use transform="matrix(0.05,0,0,0.05,26,0)" xlink:href="#aU"/><use transform="matrix(0.05,0,0,0.05,31,0)" xlink:href="#aV"/><use transform="matrix(0.05,0,0,0.05,45,0)" xlink:href="#aW"/><use transform="matrix(0.05,0,0,0.05,55,0)" xlink:href="#bb"/></g><g id="I"><use transform="matrix(0.05,0,0,0.05,0,0)" xlink:href="#aS"/><use transform="matrix(0.05,0,0,0.05,14,0)" xlink:href="#aT"/><use transform="matrix(0.05,0,0,0.05,26,0)" xlink:href="#aU"/><use transform="matrix(0.05,0,0,0.05,31,0)" xlink:href="#aV"/><use transform="matrix(0.05,0,0,0.05,45,0)" xlink:href="#aW"/><use transform="matrix(0.05,0,0,0.05,55,0)" xlink:href="#bg"/></g><g id="J"><use transform="matrix(0.05,0,0,0.05,0,0)" xlink:href="#bb"/><use transform="matrix(0.05,0,0,0.05,10,0)" xlink:href="#aR"/></g><path fill="#3a414a" d="M134-131c28 9 52 24 51 62-1 50-34 73-85 73S17-19 16-69c0-36 21-54 49-61-75-25-45-126 34-121 46 3 78 18 79 63 0 33-17 51-44 57zm-34-11c31 1 46-15 46-44 0-28-17-43-47-42-29 0-46 13-45 42 1 28 16 44 46 44zm1 122c35 0 51-18 51-52 0-30-18-46-53-46-33 0-51 17-51 47 0 34 19 51 53 51" id="bh"/><path fill="#3a414a" d="M54-142c48-35 137-8 131 61C196 18 31 33 14-55l32-4c7 23 22 37 52 37 35-1 51-22 54-58 4-55-73-65-99-34H22l8-134h141v27H59" id="bi"/><g id="K"><use transform="matrix(0.06172839506172839,0,0,0.06172839506172839,0,0)" xlink:href="#aN"/><use transform="matrix(0.06172839506172839,0,0,0.06172839506172839,15.987654320987653,0)" xlink:href="#av"/><use transform="matrix(0.06172839506172839,0,0,0.06172839506172839,31.54320987654321,0)" xlink:href="#aG"/><use transform="matrix(0.06172839506172839,0,0,0.06172839506172839,46.358024691358025,0)" xlink:href="#bh"/><use transform="matrix(0.06172839506172839,0,0,0.06172839506172839,58.7037037037037,0)" xlink:href="#bh"/><use transform="matrix(0.06172839506172839,0,0,0.06172839506172839,71.04938271604938,0)" xlink:href="#aK"/><use transform="matrix(0.06172839506172839,0,0,0.06172839506172839,83.39506172839506,0)" xlink:href="#bi"/></g><path fill="#3a414a" d="M30 0v-248h187v28H63v79h144v27H63v87h162V0H30" id="bj"/><path fill="#3a414a" d="M205 0l-28-72H64L36 0H1l101-248h38L239 0h-34zm-38-99l-47-123c-12 45-31 82-46 123h93" id="bk"/><path fill="#3a414a" d="M160-131c35 5 61 23 61 61C221 17 115-2 30 0v-248c76 3 177-17 177 60 0 33-19 50-47 57zm-97-11c50-1 110 9 110-42 0-47-63-36-110-37v79zm0 115c55-2 124 14 124-45 0-56-70-42-124-44v89" id="bl"/><path fill="#3a414a" d="M30 0v-248h33v221h125V0H30" id="bm"/><g id="L"><use transform="matrix(0.06172839506172839,0,0,0.06172839506172839,0,0)" xlink:href="#bj"/><use transform="matrix(0.06172839506172839,0,0,0.06172839506172839,14.814814814814813,0)" xlink:href="#aM"/><use transform="matrix(0.06172839506172839,0,0,0.06172839506172839,30.80246913580247,0)" xlink:href="#bk"/><use transform="matrix(0.06172839506172839,0,0,0.06172839506172839,45.61728395061728,0)" xlink:href="#bl"/><use transform="matrix(0.06172839506172839,0,0,0.06172839506172839,60.43209876543209,0)" xlink:href="#bm"/><use transform="matrix(0.06172839506172839,0,0,0.06172839506172839,72.77777777777777,0)" xlink:href="#bj"/></g><path fill="#3a414a" d="M240 0l2-218c-23 76-54 145-80 218h-23L58-218 59 0H30v-248h44l77 211c21-75 51-140 76-211h43V0h-30" id="bn"/><path fill="#3a414a" d="M185-189c-5-48-123-54-124 2 14 75 158 14 163 119 3 78-121 87-175 55-17-10-28-26-33-46l33-7c5 56 141 63 141-1 0-78-155-14-162-118-5-82 145-84 179-34 5 7 8 16 11 25" id="bo"/><path fill="#3a414a" d="M101-251c68 0 85 55 85 127S166 4 100 4C33 4 14-52 14-124c0-73 17-127 87-127zm-1 229c47 0 54-49 54-102s-4-102-53-102c-51 0-55 48-55 102 0 53 5 102 54 102" id="bp"/><g id="M"><use transform="matrix(0.06172839506172839,0,0,0.06172839506172839,0,0)" xlink:href="#bn"/><use transform="matrix(0.06172839506172839,0,0,0.06172839506172839,18.456790123456788,0)" xlink:href="#bo"/><use transform="matrix(0.06172839506172839,0,0,0.06172839506172839,33.2716049382716,0)" xlink:href="#bp"/></g><g id="N"><use transform="matrix(0.06172839506172839,0,0,0.06172839506172839,0,0)" xlink:href="#bn"/><use transform="matrix(0.06172839506172839,0,0,0.06172839506172839,18.456790123456788,0)" xlink:href="#bo"/><use transform="matrix(0.06172839506172839,0,0,0.06172839506172839,33.2716049382716,0)" xlink:href="#aO"/></g><g id="O"><use transform="matrix(0.06172839506172839,0,0,0.06172839506172839,0,0)" xlink:href="#bn"/><use transform="matrix(0.06172839506172839,0,0,0.06172839506172839,18.456790123456788,0)" xlink:href="#bo"/><use transform="matrix(0.06172839506172839,0,0,0.06172839506172839,33.2716049382716,0)" xlink:href="#aK"/></g><path fill="#3a414a" d="M127-220V0H93v-220H8v-28h204v28h-85" id="bq"/><g id="P"><use transform="matrix(0.06172839506172839,0,0,0.06172839506172839,0,0)" xlink:href="#av"/><use transform="matrix(0.06172839506172839,0,0,0.06172839506172839,15.987654320987653,0)" xlink:href="#bj"/><use transform="matrix(0.06172839506172839,0,0,0.06172839506172839,30.80246913580247,0)" xlink:href="#bo"/><use transform="matrix(0.06172839506172839,0,0,0.06172839506172839,45.61728395061728,0)" xlink:href="#bj"/><use transform="matrix(0.06172839506172839,0,0,0.06172839506172839,60.43209876543209,0)" xlink:href="#bq"/></g><g id="Q"><use transform="matrix(0.06172839506172839,0,0,0.06172839506172839,0,0)" xlink:href="#bo"/><use transform="matrix(0.06172839506172839,0,0,0.06172839506172839,14.814814814814813,0)" xlink:href="#bm"/><use transform="matrix(0.06172839506172839,0,0,0.06172839506172839,27.160493827160494,0)" xlink:href="#bj"/><use transform="matrix(0.06172839506172839,0,0,0.06172839506172839,41.9753086419753,0)" xlink:href="#bj"/><use transform="matrix(0.06172839506172839,0,0,0.06172839506172839,56.79012345679011,0)" xlink:href="#aD"/></g><g id="R"><use transform="matrix(0.06172839506172839,0,0,0.06172839506172839,0,0)" xlink:href="#bo"/><use transform="matrix(0.06172839506172839,0,0,0.06172839506172839,14.814814814814813,0)" xlink:href="#bm"/><use transform="matrix(0.06172839506172839,0,0,0.06172839506172839,27.160493827160494,0)" xlink:href="#bj"/><use transform="matrix(0.06172839506172839,0,0,0.06172839506172839,41.9753086419753,0)" xlink:href="#aD"/></g><path fill="#3a414a" d="M212-179c-10-28-35-45-73-45-59 0-87 40-87 99 0 60 29 101 89 101 43 0 62-24 78-52l27 14C228-24 195 4 139 4 59 4 22-46 18-125c-6-104 99-153 187-111 19 9 31 26 39 46" id="br"/><g id="S"><use transform="matrix(0.06172839506172839,0,0,0.06172839506172839,0,0)" xlink:href="#aN"/><use transform="matrix(0.06172839506172839,0,0,0.06172839506172839,15.987654320987653,0)" xlink:href="#aI"/><use transform="matrix(0.06172839506172839,0,0,0.06172839506172839,22.160493827160494,0)" xlink:href="#av"/><use transform="matrix(0.06172839506172839,0,0,0.06172839506172839,38.148148148148145,0)" xlink:href="#bj"/><use transform="matrix(0.06172839506172839,0,0,0.06172839506172839,52.96296296296296,0)" xlink:href="#br"/><use transform="matrix(0.06172839506172839,0,0,0.06172839506172839,68.95061728395062,0)" xlink:href="#bq"/><use transform="matrix(0.06172839506172839,0,0,0.06172839506172839,82.46913580246914,0)" xlink:href="#aI"/><use transform="matrix(0.06172839506172839,0,0,0.06172839506172839,88.64197530864197,0)" xlink:href="#aJ"/><use transform="matrix(0.06172839506172839,0,0,0.06172839506172839,105.92592592592592,0)" xlink:href="#aM"/></g><path d="M233-177c-1 41-23 64-60 70L243 0h-38l-65-103H63V0H30v-248c88 3 205-21 203 71zM63-129c60-2 137 13 137-47 0-61-80-42-137-45v92" id="bs"/><path d="M232-93c-1 65-40 97-104 97C67 4 28-28 28-90v-158h33c8 89-33 224 67 224 102 0 64-133 71-224h33v155" id="bt"/><g id="T"><use transform="matrix(0.05,0,0,0.05,0,0)" xlink:href="#aS"/><use transform="matrix(0.05,0,0,0.05,14,0)" xlink:href="#bs"/><use transform="matrix(0.05,0,0,0.05,26.950000000000003,0)" xlink:href="#aV"/><use transform="matrix(0.05,0,0,0.05,40.95,0)" xlink:href="#bt"/><use transform="matrix(0.05,0,0,0.05,53.900000000000006,0)" xlink:href="#aZ"/><use transform="matrix(0.05,0,0,0.05,66.85000000000001,0)" xlink:href="#ba"/></g><path d="M30 0v-248h33v221h125V0H30" id="bu"/><path d="M212-179c-10-28-35-45-73-45-59 0-87 40-87 99 0 60 29 101 89 101 43 0 62-24 78-52l27 14C228-24 195 4 139 4 59 4 22-46 18-125c-6-104 99-153 187-111 19 9 31 26 39 46" id="bv"/><g id="U"><use transform="matrix(0.05,0,0,0.05,0,0)" xlink:href="#bu"/><use transform="matrix(0.05,0,0,0.05,10,0)" xlink:href="#aV"/><use transform="matrix(0.05,0,0,0.05,24,0)" xlink:href="#aS"/><use transform="matrix(0.05,0,0,0.05,38,0)" xlink:href="#aU"/><use transform="matrix(0.05,0,0,0.05,43,0)" xlink:href="#bv"/></g><path d="M63-220v92h138v28H63V0H30v-248h175v28H63" id="bw"/><path d="M205 0l-28-72H64L36 0H1l101-248h38L239 0h-34zm-38-99l-47-123c-12 45-31 82-46 123h93" id="bx"/><path d="M127-220V0H93v-220H8v-28h204v28h-85" id="by"/><g id="V"><use transform="matrix(0.05,0,0,0.05,0,0)" xlink:href="#bw"/><use transform="matrix(0.05,0,0,0.05,9.950000000000001,0)" xlink:href="#bx"/><use transform="matrix(0.05,0,0,0.05,21.950000000000003,0)" xlink:href="#bt"/><use transform="matrix(0.05,0,0,0.05,34.900000000000006,0)" xlink:href="#bu"/><use transform="matrix(0.05,0,0,0.05,43.550000000000004,0)" xlink:href="#by"/></g><g id="W"><use transform="matrix(0.05,0,0,0.05,0,0)" xlink:href="#bx"/><use transform="matrix(0.05,0,0,0.05,12,0)" xlink:href="#bd"/></g><g id="X"><use transform="matrix(0.05,0,0,0.05,0,0)" xlink:href="#bx"/><use transform="matrix(0.05,0,0,0.05,12,0)" xlink:href="#aW"/></g><path d="M160-131c35 5 61 23 61 61C221 17 115-2 30 0v-248c76 3 177-17 177 60 0 33-19 50-47 57zm-97-11c50-1 110 9 110-42 0-47-63-36-110-37v79zm0 115c55-2 124 14 124-45 0-56-70-42-124-44v89" id="bz"/><g id="Y"><use transform="matrix(0.05,0,0,0.05,0,0)" xlink:href="#bz"/><use transform="matrix(0.05,0,0,0.05,12,0)" xlink:href="#aW"/></g><g id="Z"><use transform="matrix(0.05,0,0,0.05,0,0)" xlink:href="#bz"/><use transform="matrix(0.05,0,0,0.05,12,0)" xlink:href="#bd"/></g><path d="M240 0l2-218c-23 76-54 145-80 218h-23L58-218 59 0H30v-248h44l77 211c21-75 51-140 76-211h43V0h-30" id="bA"/><g id="aa"><use transform="matrix(0.05,0,0,0.05,0,0)" xlink:href="#bA"/><use transform="matrix(0.05,0,0,0.05,14.950000000000001,0)" xlink:href="#aV"/><use transform="matrix(0.05,0,0,0.05,28.950000000000003,0)" xlink:href="#by"/><use transform="matrix(0.05,0,0,0.05,39.550000000000004,0)" xlink:href="#aV"/><use transform="matrix(0.05,0,0,0.05,53.550000000000004,0)" xlink:href="#bs"/></g><g id="ab"><use transform="matrix(0.05,0,0,0.05,0,0)" xlink:href="#aR"/><use transform="matrix(0.05,0,0,0.05,12,0)" xlink:href="#bA"/><use transform="matrix(0.05,0,0,0.05,26.950000000000003,0)" xlink:href="#aV"/><use transform="matrix(0.05,0,0,0.05,40.95,0)" xlink:href="#by"/></g><use transform="matrix(0.06172839506172839,0,0,0.06172839506172839,0,0)" xlink:href="#br" id="ac"/><g id="ad"><use transform="matrix(0.06172839506172839,0,0,0.06172839506172839,0,0)" xlink:href="#aO"/><use transform="matrix(0.06172839506172839,0,0,0.06172839506172839,12.345679012345679,0)" xlink:href="#bp"/><use transform="matrix(0.06172839506172839,0,0,0.06172839506172839,24.691358024691358,0)" xlink:href="#bp"/></g><path fill="#3a414a" d="M84 4C-5 8 30-112 23-190h32v120c0 31 7 50 39 49 72-2 45-101 50-169h31l1 190h-30c-1-10 1-25-2-33-11 22-28 36-60 37" id="bB"/><path fill="#3a414a" d="M63-220v92h138v28H63V0H30v-248h175v28H63" id="bC"/><g id="ae"><use transform="matrix(0.06172839506172839,0,0,0.06172839506172839,0,0)" xlink:href="#bB"/><use transform="matrix(0.06172839506172839,0,0,0.06172839506172839,12.345679012345679,0)" xlink:href="#bC"/></g><g id="af"><use transform="matrix(0.06172839506172839,0,0,0.06172839506172839,0,0)" xlink:href="#aO"/><use transform="matrix(0.06172839506172839,0,0,0.06172839506172839,12.345679012345679,0)" xlink:href="#aK"/></g><use transform="matrix(0.06172839506172839,0,0,0.06172839506172839,0,0)" xlink:href="#aG" id="ag"/><g id="ah"><use transform="matrix(0.06172839506172839,0,0,0.06172839506172839,0,0)" xlink:href="#bl"/><use transform="matrix(0.06172839506172839,0,0,0.06172839506172839,14.814814814814813,0)" xlink:href="#aJ"/><use transform="matrix(0.06172839506172839,0,0,0.06172839506172839,32.09876543209876,0)" xlink:href="#bl"/><use transform="matrix(0.06172839506172839,0,0,0.06172839506172839,46.91358024691357,0)" xlink:href="#aI"/><use transform="matrix(0.06172839506172839,0,0,0.06172839506172839,53.08641975308641,0)" xlink:href="#aM"/><use transform="matrix(0.06172839506172839,0,0,0.06172839506172839,69.07407407407406,0)" xlink:href="#bj"/></g><use transform="matrix(0.06172839506172839,0,0,0.06172839506172839,0,0)" xlink:href="#aO" id="ai"/><path fill="#3a414a" d="M232-93c-1 65-40 97-104 97C67 4 28-28 28-90v-158h33c8 89-33 224 67 224 102 0 64-133 71-224h33v155" id="bD"/><g id="aj"><use transform="matrix(0.06172839506172839,0,0,0.06172839506172839,0,0)" xlink:href="#bn"/><use transform="matrix(0.06172839506172839,0,0,0.06172839506172839,18.456790123456788,0)" xlink:href="#aJ"/><use transform="matrix(0.06172839506172839,0,0,0.06172839506172839,35.74074074074073,0)" xlink:href="#bq"/><use transform="matrix(0.06172839506172839,0,0,0.06172839506172839,49.25925925925925,0)" xlink:href="#bj"/><use transform="matrix(0.06172839506172839,0,0,0.06172839506172839,64.07407407407406,0)" xlink:href="#bD"/><use transform="matrix(0.06172839506172839,0,0,0.06172839506172839,80.06172839506172,0)" xlink:href="#av"/></g><use transform="matrix(0.06172839506172839,0,0,0.06172839506172839,0,0)" xlink:href="#aO" id="ak"/><use transform="matrix(0.06172839506172839,0,0,0.06172839506172839,0,0)" xlink:href="#aK" id="al"/><path fill="#3a414a" d="M16-82v-28h88v28H16" id="bE"/><path fill="#3a414a" d="M110-160c48 1 74 30 74 79 0 53-28 85-80 85-65 0-83-55-86-122-5-90 50-162 133-122 14 7 22 21 27 39l-31 6c-5-40-67-38-82-6-9 19-15 44-15 74 11-20 30-34 60-33zm-7 138c34 0 49-23 49-58s-16-56-50-56c-29 0-50 16-49 49 1 36 15 65 50 65" id="bF"/><g id="am"><use transform="matrix(0.06172839506172839,0,0,0.06172839506172839,0,0)" xlink:href="#bn"/><use transform="matrix(0.06172839506172839,0,0,0.06172839506172839,18.456790123456788,0)" xlink:href="#aD"/><use transform="matrix(0.06172839506172839,0,0,0.06172839506172839,33.2716049382716,0)" xlink:href="#bD"/><use transform="matrix(0.06172839506172839,0,0,0.06172839506172839,49.25925925925925,0)" xlink:href="#bE"/><use transform="matrix(0.06172839506172839,0,0,0.06172839506172839,56.60493827160493,0)" xlink:href="#bF"/><use transform="matrix(0.06172839506172839,0,0,0.06172839506172839,68.9506172839506,0)" xlink:href="#bp"/><use transform="matrix(0.06172839506172839,0,0,0.06172839506172839,81.29629629629629,0)" xlink:href="#bi"/><use transform="matrix(0.06172839506172839,0,0,0.06172839506172839,93.64197530864197,0)" xlink:href="#bp"/></g><g id="an"><use transform="matrix(0.06172839506172839,0,0,0.06172839506172839,0,0)" xlink:href="#aG"/><use transform="matrix(0.06172839506172839,0,0,0.06172839506172839,14.814814814814813,0)" xlink:href="#br"/><use transform="matrix(0.06172839506172839,0,0,0.06172839506172839,30.80246913580247,0)" xlink:href="#br"/></g><g id="ao"><use transform="matrix(0.06172839506172839,0,0,0.06172839506172839,0,0)" xlink:href="#aH"/><use transform="matrix(0.06172839506172839,0,0,0.06172839506172839,17.28395061728395,0)" xlink:href="#aM"/><use transform="matrix(0.06172839506172839,0,0,0.06172839506172839,33.2716049382716,0)" xlink:href="#aN"/></g><g id="ap"><use transform="matrix(0.06172839506172839,0,0,0.06172839506172839,0,0)" xlink:href="#bo"/><use transform="matrix(0.06172839506172839,0,0,0.06172839506172839,14.814814814814813,0)" xlink:href="#br"/><use transform="matrix(0.06172839506172839,0,0,0.06172839506172839,30.80246913580247,0)" xlink:href="#bm"/></g><g id="aq"><use transform="matrix(0.06172839506172839,0,0,0.06172839506172839,0,0)" xlink:href="#bo"/><use transform="matrix(0.06172839506172839,0,0,0.06172839506172839,14.814814814814813,0)" xlink:href="#aN"/><use transform="matrix(0.06172839506172839,0,0,0.06172839506172839,30.80246913580247,0)" xlink:href="#bk"/></g><path fill="#3a414a" d="M195 0l-74-108L45 0H8l94-129-87-119h37l69 98 67-98h37l-84 118L233 0h-38" id="bG"/><g id="ar"><use transform="matrix(0.06172839506172839,0,0,0.06172839506172839,0,0)" xlink:href="#bG"/><use transform="matrix(0.06172839506172839,0,0,0.06172839506172839,14.814814814814813,0)" xlink:href="#aN"/><use transform="matrix(0.06172839506172839,0,0,0.06172839506172839,30.80246913580247,0)" xlink:href="#bk"/></g><g id="as"><use transform="matrix(0.06172839506172839,0,0,0.06172839506172839,0,0)" xlink:href="#bG"/><use transform="matrix(0.06172839506172839,0,0,0.06172839506172839,14.814814814814813,0)" xlink:href="#br"/><use transform="matrix(0.06172839506172839,0,0,0.06172839506172839,30.80246913580247,0)" xlink:href="#bm"/></g><g id="at"><use transform="matrix(0.06172839506172839,0,0,0.06172839506172839,0,0)" xlink:href="#bk"/><use transform="matrix(0.06172839506172839,0,0,0.06172839506172839,14.814814814814813,0)" xlink:href="#aN"/><use transform="matrix(0.06172839506172839,0,0,0.06172839506172839,30.80246913580247,0)" xlink:href="#bp"/></g><g id="au"><use transform="matrix(0.06172839506172839,0,0,0.06172839506172839,0,0)" xlink:href="#aI"/><use transform="matrix(0.06172839506172839,0,0,0.06172839506172839,6.172839506172839,0)" xlink:href="#aM"/><use transform="matrix(0.06172839506172839,0,0,0.06172839506172839,22.160493827160494,0)" xlink:href="#bq"/></g></defs></g></svg>